<svg xmlns="http://www.w3.org/2000/svg" viewBox="0 0 1164.1 555.9"><style>.st0{opacity:.1;fill:#6c63ff;enable-background:new}.st1{fill:#eaecf0}.st2{fill:#3a3768}.st3{opacity:.1;enable-background:new}.st4{fill:#efc6cd}.st5{fill:#d48a9b}.st6{fill:#dfe6f5}.st7{opacity:.15;enable-background:new}.st8{fill:#4c4c56}.st9{fill:#d1d9ec}.st10{fill:#6c63ff}.st11{fill:url(#SVGID_1_)}.st12{fill:url(#SVGID_2_)}.st13{fill:#d38884}.st14{fill:#a36468}.st15{fill:#444053}.st16{fill:#67647e}.st17{opacity:.1}.st18{fill:#d3dae1}.st19{fill:#fff}.st20{fill:#d5e1f4}.st21{fill:url(#SVGID_3_)}.st22{fill:#efb7b9}.st23{opacity:5e-2;enable-background:new}.st24{opacity:.4}.st25{fill:#1c3ed3}.st26{opacity:.5;fill:#fff}</style><g id="designers"><title>design tools</title><path class="st0" d="M1155.2 461.1c-5.6 10.8-13.4 20.2-23 27.6-1.4 1.1-2.8 2.1-4.2 3.2-1.9 1.3-3.8 2.6-5.8 3.9-15.5 9.8-33.6 16.5-51.3 21.4-4.8 1.3-9.7 2.6-14.5 3.8-4.1 1-8.2 1.9-12.3 2.8-1.6.3-3.1.7-4.7 1-1.6.3-3.3.7-5 1l-2.4.5c-45.8 8.4-92.2 10.1-139 7.9l-2.2-.1-3.5-.2c-9.5-.5-19-1.1-28.5-1.9l-3.6-.3-1.6-.1c-5.3-.4-10.7-.9-16-1.5-7-.7-14.1-1.4-21.1-2.2l-.9-.1-.7-.1c-25.2-2.8-50.4-6.2-75.6-9.7l-3.6-.5-6.4-.9-5.4-.8-1.6-.2c-8.5-1.2-17-2.4-25.6-3.5l-1.4-.2c-16-2.2-32.1-4.3-48.1-6.2l-2.1-.2c-6.6-.8-13.1-1.5-19.7-2.2l-5-.5-6.7-.7c-18.4-1.8-36.8-3.3-55.2-4.2-8.8-.4-17.7-.8-26.6-1-7.3-.2-14.7-.3-22-.3-9.9 0-19.9 0-29.9.2h-2.3c-14.1.2-28.2.6-42.3 1.1l-2.5.1h-.9c-30 1.1-60 2.5-89.9 3.5l-7.3.2h-1.1c-10.4.3-20.8.6-31.2.8H296.3l-4.6.1c-4.8 0-9.6.1-14.4.1h-5.9c-17.6 0-35.2-.4-52.6-1.3l-1.9-.1c-33.9-1.8-67.4-5.6-100.3-12.5-3.4-.7-6.8-1.5-10.2-2.2-22.7-5.1-45.1-11.9-66.8-20.3-10.2-4-20.5-8.6-28.3-16.4-19.8-20-12.3-59.2 13.4-70.6 20.1-8.9 43.7-1.7 65.3-5.7 1.3-.3 2.6-.6 3.9-1 2.7-.9 5.4-2 8-3.3.9-.4 1.8-.9 2.7-1.4 2-1.1 4-2.3 5.9-3.6 3.1-2.1 6.1-4.4 9-6.8 1.3-1.1 2.5-2.2 3.7-3.4 4.2-3.9 7.8-8.3 10.9-13.1 1.1-1.8 2.1-3.7 3-5.6.5-1 .9-2.1 1.2-3.1.5-1.5.9-3 1.2-4.6 1.3-7.4-.8-14.7-7.9-20.8-.6-.5-1.3-1-2-1.5-1.4-1-2.8-1.8-4.3-2.5-.6-.3-1.2-.6-1.9-.8-9.1-3.9-20.9-5.3-30.9-8-3-.8-6-1.8-8.8-3.1-1.8-.8-3.6-1.7-5.4-2.6l-.5-.3c-15.1-7.8-28.4-18.7-39-32-2.6-3.4-5.1-6.9-7.3-10.5-.7-1.1-1.3-2.2-1.9-3.4-17.6-31.7-19.4-72.3-1.1-103.5 2.2-3.8 4.7-7.4 7.4-10.9.9-1.1 1.8-2.3 2.7-3.4 17.4-20.8 42.4-34.7 67.7-45 33.9-13.8 69.4-22.6 105.5-28.3 7.3-1.2 14.7-2.2 22-3.1 30.7-3.9 61.8-6 92.6-7.6 28.8-1.5 57.8-2.4 86.9-2.8 9.9-.1 19.7-.2 29.6-.2 22.3 0 44.5.4 66.8 1.3 7.3.3 14.7.6 22 1 18.8 1 37.6 2.3 56.3 4 9 .8 18 1.7 26.9 2.7 68.2 7.5 135.5 20.1 200.4 39.8 7.4 2.2 14.7 4.6 22 7 27.3 9 54.1 19.4 80.4 31.1 2.5 1.1 5 2.2 7.4 3.4 16.4 7.5 32.6 15.6 48.5 24.3 21 11.3 41.3 24 60.6 38 7.5 5.5 14.9 11.3 22 17.3 12.6 10.6 24.3 22.2 35.1 34.6 1 1.1 1.9 2.2 2.8 3.4 4.9 5.9 9.5 11.9 13.9 18.2 21.4 30.8 35.8 65.9 46.4 101.9 9.4 31.2 15.6 66.4.8 95.7z"/><path class="st0" d="M1141.8 353.8h-85.4V245.1h38c-.9-1.1-1.9-2.2-2.8-3.4h-35.1v-34.6c-7.1-6-14.4-11.8-22-17.3v52h-197V127.5h87.8c-2.5-1.1-4.9-2.2-7.4-3.4h-80.4V93c-7.3-2.4-14.7-4.8-22-7v38H534.3l-.7-.6L615 46.2c-9-1-17.9-1.9-26.9-2.7L531.7 97V39.6c-7.3-.4-14.7-.7-22-1v62.1L443 37.3c-9.9 0-19.7.1-29.6.2l90.6 85.9-.7.6H233.8V48c-7.3.9-14.7 2-22 3.1v73H38.6c-.9 1.1-1.8 2.2-2.7 3.4h175.9v114.3H29.6c.6 1.1 1.3 2.3 1.9 3.4h180.3v108.7h-88.7c-1.2 1.2-2.4 2.3-3.7 3.4h92.4v111.2c7.3 1 14.7 2.1 22 3.3V357.1h275.9v139.3c7.3 0 14.7.1 22 .3V357.1h283.7v170.6l.9.1c7 .8 14.1 1.5 21.1 2.2V357.1h196.9v168.6c1.7-.3 3.4-.6 5-1s3.1-.6 4.7-1c4.1-.9 8.2-1.8 12.3-2.8V357.1h86.1l-.6-3.3zm-632.1 0H233.8V245.1h275.9v108.7zm0-112H233.8V127.5h272l3.9 3.1v111.2zm305.7 112H531.7V245.1h283.7v108.7zm0-112H531.7V127.5h283.7v114.3zm218.9 112H837.4V245.1h196.9v108.7z"/><path class="st1" d="M297.2 507.2c0 .1-.1.2-.1.3 0-.1.1-.2.1-.3zM302.4 502.4H296.2l-4.6.1-.5-5.3-.5-5-2.2-22.8-.1-.7v-.3l-.6-6.4 9.3-3.5 1.1 9.3.1.7v.1l2.3 18.9.7 5.8.4 3.4.4 2.9v.1l.4 2.7z"/><path class="st2" d="M335.9 507.2l.1.3h-.7l-.1-.3zM421.4 507.5zM480.8 375.4v.4s-8.7 23.8-11.6 44.2c-.2 1.3-.4 2.7-.5 4-.1 1.4-.2 2.8-.3 4.1-.1 1.6-.1 3.1-.1 4.5v1c0 .7.1 1.4.1 2.1s.1 1.4.2 2.2.1 1.4.2 2.1c2.1 22 10.3 54.2 10.3 54.2s.3.9.6 2.3h-2.3c-14.1.2-28.2.6-42.3 1.1l-2.5.1h-.8c-30 1.1-60 2.5-89.9 3.5l-7.3.2h-1.1c-10.4.3-20.8.6-31.2.8h-2.8c.7-1 1.5-1.9 2.4-2.7.8-.7 1.6-1.3 2.5-1.9 4.8-3 9.9-5.2 15.4-6.6 1.1-.3 2.3-.5 3.5-.4l7 .1h1.1l10.7.2 92.1 1.8h.2l.6-.1c1.1-.3 2.1-.6 3.1-1.1 3.5-1.5 6-4.7 6.6-8.5 0-.3.1-.6.1-1v-1.5c0-.3 0-.7-.1-1.1s-.1-.7-.2-1.1c-2.2-12.4-6-50.6-6-50.6v.1s0-1.6.1-4.4V422.1c0-.6.1-1.3.1-2 0-.4.1-.9.1-1.3 0-.7.1-1.4.2-2.1v-.1c0-.5.1-.9.1-1.4.1-.7 0-.1 0-.2 1.5-14.8 6.2-38.1 21-46.8 7-4.1 11.5-4.9 14.6-4.1 4.4 1.2 5.5 5.8 5.8 8.8v.6c.2.8.3 1.4.3 1.9z"/><path class="st3" d="M297.2 507.2c0 .1-.1.2-.1.3 0-.1.1-.2.1-.3zM335.9 507.2l.1.3h-.7l-.1-.3zM421.4 507.5zM480.8 375.4v.3s-7.2 19.7-10.6 38.5c-.2 1.3-.5 2.6-.7 3.9-.1.6-.2 1.3-.3 1.9-.2 1.3-.4 2.7-.5 4-.1 1.4-.2 2.8-.3 4.1-.1 1.6-.1 3.1-.1 4.5v1c0 .7.1 1.4.1 2.1s.1 1.4.2 2.2.1 1.4.2 2.1.1 1.4.2 2.1c.3 2.8.7 5.8 1.2 8.8 3.1 20.4 8.9 43.2 8.9 43.2s.3.9.6 2.5h-2.3c-14.1.2-28.2.6-42.3 1.1l-2.5.1h-.8c-30 1.1-60 2.5-89.9 3.5l-7.3.2h-1.1c-10.4.3-20.8.6-31.2.8h-2.9c.7-1 1.6-2 2.5-2.8.8-.7 1.6-1.4 2.5-1.9 4.8-3 9.9-5.2 15.4-6.6 1.1-.3 2.3-.4 3.5-.4l7 .1h1.1l10.8.2 92.2 1.8h.2s.3 0 .7-.2c1.1-.3 2.1-.6 3.1-1.1 3.4-1.5 5.9-4.6 6.5-8.3 0-.3.1-.6.1-1v-1.5c0-.3 0-.7-.1-1.1s-.1-.8-.2-1.2c-2.2-12.4-6-50.6-6-50.6s0-1.6.1-4.4V422c0-.6.1-1.3.1-2 0-.4.1-.9.1-1.3 0-.7.1-1.4.2-2.1v-.1c0-.5.1-.9.1-1.4.1-.7 0-.1 0-.2.2-1.8.4-3.8.7-5.9 2.1-14.5 7.3-33.4 20.2-41 6.8-4 11.3-4.8 14.3-4.2 4.7 1.1 5.8 5.9 6 8.9v.6c.2.8.3 1.5.3 2.1z"/><path class="st2" d="M297.2 507.2c0 .1-.1.2-.1.3 0-.1.1-.2.1-.3zM335.9 507.2l.1.3h-.7l-.1-.3zM421.4 507.5zM478.2 374.6s-13 35.7-12.4 57 10.8 61.4 10.8 61.4.4 1.4.9 3.7c-14.1.2-28.2.6-42.3 1.1l-2.5.1h-.8c-30 1.1-60 2.5-89.9 3.5l-7.3.2h-1.1c-10.4.3-20.8.6-31.2.8H296.2c1.4-2.3 3.3-4.3 5.5-5.8l.3-.2c4.8-2.9 9.9-5.1 15.3-6.4 1.1-.3 2.3-.4 3.5-.4l9.2.2h1.1l11.1.2 89.8 1.8c1.3-.2 2.5-.6 3.7-1.2.4-.2.8-.4 1.1-.6 1.1-.6 2.1-1.5 3-2.5 1.9-2.2 3.1-5.3 2.3-10-2.2-12.4-6-50.6-6-50.6s-.6-46.5 21.6-59.5c9-5.3 14.1-5.1 16.9-3 .1.1.2.1.2.2 4.1 3 3.4 10 3.4 10z"/><path class="st1" d="M119.1 462.1l-.4 3.7-2.2 22.9c-3.4-.7-6.8-1.5-10.2-2.2l2.6-20.8.9-7.1 9.3 3.5z"/><path class="st4" d="M55.1 454.7l54.5-115.9L329 355.9l20.2 98.8z"/><path class="st5" d="M55.1 464.8v-10.1h294.1v14.8z"/><path class="st6" d="M138 437.8l131.6 2.7c1 0 1.8-.8 1.9-1.8 0-.2 0-.4-.1-.6l-20.5-55.3-88.6-1.7-26.3 53.6c-.5 1.1 0 2.4 1.1 2.9.3.1.6.2.9.2z"/><path class="st7" d="M138 437.8l131.6 2.7c1 0 1.8-.8 1.9-1.8 0-.2 0-.4-.1-.6l-20.5-55.3-88.6-1.7-26.3 53.6c-.5 1.1 0 2.4 1.1 2.9.3.1.6.2.9.2z"/><path class="st6" d="M137 435.5l132.9 2.8-18.1-54.7c-.6-1.8-2.3-3.1-4.2-3.1l-85.4-1.6-25.2 56.6z"/><path class="st8" d="M148 423.1l15.9-35c.7-1.5 2.2-2.5 3.9-2.5h39.6c2.3 0 4.2 1.9 4.2 4.2v37.9c0 2.3-1.9 4.2-4.2 4.2h-.2l-55.5-2.8c-2.3-.1-4.1-2.1-4-4.4-.1-.6 0-1.1.3-1.6z"/><path class="st9" d="M226 418.6l.7-20c0-1.7 1.4-3 3.1-3h11.7c1.5 0 2.7 1.1 3 2.5l3.4 19.9c.3 1.7-.8 3.3-2.5 3.5h-.5l-15.8.1c-1.7.2-3.1-1.2-3.1-3 0 .1 0 .1 0 0z"/><path class="st8" d="M71 288.5l44.1-3.7c1.3-.2 2.6.5 3.1 1.8L160 381l-23.3 52.3c.7-1.6 1.3 11.1-4 .1L66.4 295.1c-.9-1.9 2.6-6.3 4.6-6.6z"/><path class="st7" d="M71 288.5l44.1-3.7c1.3-.2 2.6.5 3.1 1.8L160 381l-23.3 52.3c.7-1.6 1.3 11.1-4 .1L66.4 295.1c-.9-1.9 2.6-6.3 4.6-6.6z"/><path class="st8" d="M71 288.5l46.4-5.9c1.3-.2 2.6.5 3.1 1.8l41.7 94.4-25.2 56.7-68.3-142.7c-.7-1.5-.1-3.3 1.4-4l.9-.3z"/><path class="st10" d="M82.6 295.2l33.5-5.2c1.4-.2 2.7.5 3.2 1.8l35.1 85.9c.3.7.3 1.5-.1 2.2l-16.1 33.6c-.6 1.4-2.2 1.9-3.6 1.3-.6-.3-1-.7-1.3-1.3l-53.1-114c-.7-1.5-.1-3.3 1.4-4 .4-.2.7-.3 1-.3z"/><linearGradient id="SVGID_1_" gradientUnits="userSpaceOnUse" x1="439.4" y1="-123.55" x2="439.4" y2="-123.55" gradientTransform="matrix(1 0 0 -1 -17.96 383.97)"><stop offset="0" stop-color="gray" stop-opacity=".25"/><stop offset=".54" stop-color="gray" stop-opacity=".12"/><stop offset="1" stop-color="gray" stop-opacity=".1"/></linearGradient><path class="st11" d="M421.4 507.5z"/><linearGradient id="SVGID_2_" gradientUnits="userSpaceOnUse" x1="186.877" y1="22.479" x2="458.12" y2="22.479" gradientTransform="matrix(1 0 0 -1 -17.96 383.97)"><stop offset="0" stop-color="gray" stop-opacity=".25"/><stop offset=".54" stop-color="gray" stop-opacity=".12"/><stop offset="1" stop-color="gray" stop-opacity=".1"/></linearGradient><path class="st12" d="M440.2 488.6s-.7 1.1-1.7 3l-.1.2c-.9 1.6-2 3.7-3.1 6l-2.5.1h-.8c-30 1.1-60 2.5-89.9 3.5l-7.3.2h-1.1c-10.4.3-20.8.6-31.2.8H296.3l-4.6.1c-4.8 0-9.6.1-14.4.1h-5.7c-17.6 0-35.2-.4-52.6-1.3l-1.9-.1c3.4-7.5 9.6-19.7 14.5-23.6 3.9-3 31.5-6.3 56.9-8.8l2.7-.3h.1l7.1-.7c9.7-.9 18.6-1.6 24.9-2.1h.6l-3.3-11-4.8-16 1.4-13.4.1-1.1h-.1c-1.4.1-2.7 0-4-.5l-47.5-1.6h-.9l-18.2-.7c-9.8-.3-16.7-.6-17-.7-.3 0-.6-.1-.8-.2-.4-.2-.8-.4-1.2-.7-.4-.3-.7-.7-1-1.2H226l-2.6.2-1.3.1c-.1-.1-.1-.3-.1-.4-.1-.4-.2-.8-.4-1.1h-.7l-9-.2h-.2s-23.2 1.8-35.3-2.7c-4.5-1.6-7.4-4.1-7.2-7.7.1-.8.2-1.7.5-2.4-3.9-7.3 15.1-20.6 29.7-16.9 3.9 1.1 8.1 1.3 12.1.5 2.2-.5 4.2-1.4 6-2.7.2-.1.3-.3.5-.4-.2-.2-.5-.3-.7-.4-1-.5-2.1-.9-3.2-1.1l3.9-1.2h.1s14-1.3 23.1-1.8h.1c2.7-.1 5-.2 6.4-.2 6 .2 17.7-4.1 18.2-5.4s5.8 0 5.8 0l4.7-1.8c4.7-1.8 7.3-4.3 7.3-6.1s4.2-3.8 4.2-3.8c1.9-3.2 5.6-6.5 9.4-9.5 3.4-2.6 6.8-4.9 9.4-6.5 1-6.5 2.3-12.9 4-19.2 1.8-5.9 7.3-10.3 9.2-11.7l.7-.5c-.6-2.5-1.3-4.9-2.2-7.3-.1-.2-.1-.4-.2-.6-.2-.5-.4-.9-.6-1.4l-.3-.6-1.5.3c-1.7.2-3.3.4-5 .4-15.4.1-29-10.2-33.1-25v-.1c-.8-2.9-1.2-6-1.2-9 0-2.9.4-5.8 1.1-8.6.1-.6.3-1.2.5-1.8 0-.1 0-.1.1-.2.1-.3.2-.5.3-.8-1.5.2-3 .4-4.5.4h-1c-2.9.1-5.7-.4-8.4-1.4-.6-.3-1.3-.6-1.9-1 0 0-.1 0-.1-.1-.8-.4-1.5-1-2.1-1.6 2.2-1.7 3.7-4.3 4.1-7.1.3-2.2-.1-4.6 1.2-6.3.7-.8 1.5-1.5 2.3-2 5.3-3.6 9.5-8.6 14.4-12.9s10.6-8 17.1-8.2c8.7-.3 16.3 5.8 24.9 6.9 2.6.4 5.4.2 7.9.9 2.9.9 5.6 2.3 8 4.1 2.2 1.3 4.1 2.9 5.7 4.9 1.1 1.7 1.9 3.6 2.3 5.6 1.1 4.2 1.8 8.5 2 12.8.2 4.5 0 9.1.5 13.6.3 3.9 1.7 7.7 3.8 10.9h.1l1.2 1.5c-.9.3-1.7.5-2.6.7-1.4.4-2.9.7-4.4.9-.7.1-1.4.2-2 .2-.5 0-1 0-1.4-.1l.9.6 2.4 1.6.9.6 1.9 1.2c.4-1.2 1-1.6 1.7-1.5 1.4-1.3 3.4 1.5 3.4 1.5 1.2 2.3 4.4 4.5 7.2 6.2 1.7 1 3.4 1.9 5.1 2.7 37.4 22.3 35 55.6 37.2 58.2s2.3 12.2 2.3 12.2 5.5 32.5 8 35.3.2 3.8 2.3 6.9 1.7 11.5 1.7 11.5 1.5 19.8 6.8 24.1c4.8 3.8 11.2 36.2 12.5 42.9l.3.9z"/><path class="st13" d="M221.1 384.4s-5.2 8.2-19.9 4.4c-14.7-3.8-34.1 10.5-28.6 17.5 5.6 7 41.3-2 41.3-2l13.7-2.8-.9-11.4-5.6-5.7z"/><path class="st3" d="M221.1 384.4s-5.2 8.2-19.9 4.4c-14.7-3.8-34.1 10.5-28.6 17.5 5.6 7 41.3-2 41.3-2l13.7-2.8-.9-11.4-5.6-5.7z"/><path class="st14" d="M225.9 384l-6.4-.3-3.9 1.1s12.4 1.8 9 18.6l13.4-.8-12.1-18.6z"/><path class="st3" d="M225.9 384l-6.4-.3-3.9 1.1s12.4 1.8 9 18.6l13.4-.8-12.1-18.6z"/><path class="st15" d="M310.2 346.3s-17.5 10-22.4 18.3c0 0-4.1 2-4.1 3.8s-2.6 4.2-7.2 6l-4.6 1.8s-5.2-1.3-5.7 0-11.9 5.5-17.8 5.4-28.9 2-28.9 2c8.7 3.9 13.5 13.4 11.6 22.7l54.4-2.3 20.6-4.6 12.1-12.1-8-41z"/><path class="st3" d="M310.2 346.3s-17.5 10-22.4 18.3c0 0-4.1 2-4.1 3.8s-2.6 4.2-7.2 6l-4.6 1.8s-5.2-1.3-5.7 0-11.9 5.5-17.8 5.4-28.9 2-28.9 2c8.7 3.9 13.5 13.4 11.6 22.7l54.4-2.3 20.6-4.6 12.1-12.1-8-41z"/><path class="st13" d="M230 418.6l-7.7-.2-9-.2s-42.5 3.3-41.7-10.3c.8-13.6 33.5-18.4 38.1-14.5 3.4 3 11.4 5.3 15.1 6.3 1.2.3 1.9.5 1.9.5l3.3 18.4z"/><path class="st3" d="M230 418.6l-7.7-.2c-3.1-10.5.5-16.4 2.5-18.6 1.2.3 1.9.5 1.9.5l3.3 18.3z"/><path class="st14" d="M235.2 419.2l-8 .6-3.8.3c-5.2-15.4 3.2-21.4 3.2-21.4h2.5l4.1.5 2 20z"/><path class="st13" d="M332.1 317.2l-9.5 18s-1.5-18.2-5.7-26.8c-1.1-2.2-2.3-3.8-3.8-4.2-4-1.3 19-26.5 19-26.5.8.2 5.2 3 10.6 6.7 5.9 4 13.1 8.9 17.9 12 9.1 5.8-28.5 20.8-28.5 20.8z"/><path class="st15" d="M320 317.6s-7.6 4.9-9.7 12.1-4.1 20.1-4.1 20.1 3.4 30.9 5.2 32.3 8.6 32.3 8.6 32.3l6.6-4.4-8.7-38.9c0 .1 5.8-49.9 2.1-53.5z"/><path class="st3" d="M320 317.6s-7.6 4.9-9.7 12.1-4.1 20.1-4.1 20.1 3.4 30.9 5.2 32.3 8.6 32.3 8.6 32.3l6.6-4.4-8.7-38.9c0 .1 5.8-49.9 2.1-53.5z"/><path class="st14" d="M353.1 386.5H315l6.2-60.1h31.9z"/><path class="st16" d="M264.9 507.2h.5l-.9.3.4-.3zM336.5 479.8l-7.5 2.9-1 .4-26.8 10.3-10.2 3.9-13.9 5.3h-5.7c-17.6 0-35.2-.4-52.6-1.3 3.4-7.4 9.3-19.3 14.1-23.1 3.8-3 30.7-6.2 55.5-8.7 3.1-.3 6.2-.6 9.1-.9l.7-.1c9.9-.9 18.8-1.6 25-2.1l1-.1 7.8-.6.8-.8 1 4.3.8 3.4 1.9 7.2z"/><path class="st3" d="M264.9 507.2h.5l-.9.3.4-.3zM336.5 479.8l-7.5 2.9-1 .4-26.8 10.3-10.2 3.9-13.9 5.3h-5.7c-17.6 0-35.2-.4-52.6-1.3 3.4-7.4 9.3-19.3 14.1-23.1 3.8-3 30.7-6.2 55.5-8.7 3.1-.3 6.2-.6 9.1-.9l.7-.1c9.9-.9 18.8-1.6 25-2.1l1-.1 7.8-.6.8-.8 1 4.3.8 3.4 1.9 7.2z"/><path class="st16" d="M264.9 507.2h.5l-.9.3.4-.3zM297.2 507.2c0 .1-.1.2-.1.3 0-.1.1-.2.1-.3zM336 507.5h-.7l-.1-.3h.7zM342.9 469.4l-.6 20.6V491.2l-.3 10.2-7.3.2h-1.1c-10.4.3-20.8.6-31.2.8H296.2l-4.6.1c-4.8 0-9.6.1-14.4.1h-5.8c5.2-3.2 11.9-6.8 19.2-10.3 3.2-1.6 6.6-3.2 10-4.8 9-4.2 18.1-8.1 25.5-11.3l1-.4c2.9-1.2 5.5-2.3 7.7-3.2 4.8-2 7.9-3.2 8.1-3.3v.1z"/><path class="st3" d="M276.1 384.8c1.9 3.9 3.8 7.9 6.9 10.9.5.5 1.3.9 1.8.4.1-.2.2-.5.2-.7-.1-1.8-.7-3.6-1.8-5.1-1-1.5-2.2-2.9-3.1-4.5s-1.9-4.7-3.9-5.1c-2.6-.6-.6 2.9-.1 4.1zM342.7 284.4c-.1.5-.3 1-.5 1.5-3.8 11.5-13.4 20.1-25.3 22.5-1.1-2.2-2.3-3.8-3.8-4.2-4-1.3 19-26.5 19-26.5.8.2 5.2 3.1 10.6 6.7z"/><path class="st13" d="M343.9 274.8c0 18.6-15.1 33.7-33.7 33.7s-33.7-15.1-33.7-33.7 15.1-33.7 33.7-33.7 33.6 15 33.7 33.5v.2z"/><path class="st16" d="M323.1 324.8s-7 8.5-5.9 14.1h8.5l6.2-7-8.8-7.1z"/><path class="st3" d="M348 288.9l-26.7 36.7s6.9 9.8 10.1 10.3 21.9-43.4 21.9-43.4l-5.3-3.6z"/><path class="st14" d="M348.4 288.2L321.7 325s6.9 9.8 10.1 10.3 21.9-43.4 21.9-43.4l-5.3-3.7z"/><path class="st16" d="M318.2 335.2s-1.3 20.6-2.6 24.7 0 41.7 0 41.7l12.3-5.1-2.1-57.7-7.6-3.6z"/><path class="st3" d="M335.9 507.2l.1.3h-.7l-.1-.3zM421.4 507.5zM436.4 489.5s-.2.4-.6 1-.8 1.4-1.3 2.4l-.1.1c-.7 1.4-1.6 3-2.5 4.9-30 1.1-60 2.5-89.9 3.5l-7.3.2h-1.1l-3.1-10.6v-.1l-.3-1.1-2-6.7-2-6.8-2.1-7.2-.8-2.6-.2-.7-3.3-11.1-4.4-15.1 1.4-14.4.1-1.1 1.3-12.9.2-3.8.1-2v-.6l.2-4.6.7-13.8.3-7.1.1-1.1.7-14.2 1.9-5.8 1-2.9 2.2-6.7.5-1.7c.7-2.5 2.1-7.5 3.4-12.2l.1-.4.1-.3.9-3.4 1.2-4.4c.4-1.7.7-2.9.8-3.3.1-.7 2-3.9 4.5-8 5-8.3 12.5-20.4 13.4-24.5v-.1c.1-.2.1-.5.2-.7.4-1.2 1-1.5 1.6-1.5.3 0 .6.2.8.3.6.4 1.1.9 1.6 1.5 1.2 2.2 4.3 4.5 7.1 6.2l.5.3.3.2c2.3 1.3 4.2 2.1 4.2 2.1 36.6 22.1 34.3 55.1 36.4 57.7s2.3 12.1 2.3 12.1 5.4 32.2 7.8 35 .2 3.8 2.3 6.9 1.6 11.3 1.6 11.3 1.5 19.6 6.7 23.8 12.5 44 12.5 44z"/><path class="st15" d="M437.4 489.2l-.4.8c-.4.6-.9 1.6-1.6 2.8l-.1.1c-.8 1.4-1.7 3.1-2.5 5h-.8c-30 1.1-60 2.5-89.9 3.5l-7.3.2-3.1-10.6v-.1l-.3-1.1-2.1-7-2-6.8-2-6.8-.8-2.7-3.4-11.7-4.5-15.4 1.2-12.5.2-1.7 1.4-14.2.5-11.1.6-13.4.2-3.5.2-4.1.1-1.7.6-13.4 1.9-5.8.8-2.5 1.9-5.8.4-1.2s1.9-6.6 3.7-13.1c.1-.2.1-.5.2-.7.2-.6.3-1.1.5-1.7.2-.6.3-1.1.5-1.7.5-1.8 1-3.5 1.3-4.9.5-1.8.8-3.2.9-3.6.1-.7 2-3.9 4.6-8.1 4.7-7.8 11.6-19 13.1-23.6.1-.2.1-.5.2-.7.1-.7.4-1.4.9-2 1.3-1.3 3.3 1.5 3.3 1.5 1.2 2.2 4.3 4.5 7.1 6.2 1.6 1 3.3 1.9 5 2.6 36.6 22.1 34.3 55.1 36.4 57.7s2.3 12.1 2.3 12.1 5.4 32.2 7.8 35 .2 3.8 2.3 6.9 1.6 11.4 1.6 11.4 1.5 19.6 6.7 23.9 12.4 43.5 12.4 43.5z"/><path class="st3" d="M362.7 296.6c-3.6 5.2-9.4 14.4-11 21 0 0-5.7 5.9-7.9 5.6s2 4.4 2 4.4l-22.5 31.1 3.2-9.6s6.7-23.5 7-25.6 16.6-26.4 17.9-32.5c1-4.9 4.2-.5 4.2-.5 1.2 2.2 4.4 4.5 7.1 6.1z"/><path class="st15" d="M362.7 296c-3.6 5.2-9.4 14.4-11 21 0 0-5.7 5.9-7.9 5.6s2 4.4 2 4.4l-22.4 31 3.2-9.6s6.7-23.5 7-25.7 16.6-26.4 17.9-32.5c1-4.9 4.2-.5 4.2-.5 1.1 2.3 4.3 4.6 7 6.3z"/><path class="st3" d="M392.9 360.5c.2 7.1-10.3 16.9-10.8 17.5s-32.5 27-32.5 27l-23 17.6c-2.6 2.1-5.7 3.6-9 4.2l1.6-15.8 1.5-32c3.6-4 7.1-8.2 7.1-9.5.2-2.8 6-5.7 6-5.7s4.1-3.4 3.4-5.4 2.2-11.4 2.2-11.4c1.5-26.6 28.9-29.2 28.9-29.2s13.2 5.2 22.5 10.8 2 24.8 2.1 31.9zM235.2 419.2l-8 .6c-3.4-5.8 1.3-21.2 1.3-21.2h.6l4.1.5 2 20.1z"/><path class="st15" d="M368.4 316.1s-27.5 2.6-28.9 29.2c0 0-2.8 9.3-2.1 11.3S334 362 334 362s-5.9 2.9-6 5.7-15 17.9-15 17.9-6.2 7.1-20.6 7.8-21.1 5.1-21.1 5.1-7-4.9-12.1-3.4-29.9 3.4-29.9 3.4-6.6 21.8 1.6 23.2c1 .2 81.9 2.9 81.9 2.9s5.5 2.6 13.9-3.8 23-17.7 23-17.7 32-26.5 32.5-27 11-10.3 10.8-17.5 7.4-26.4-2-32-22.6-10.5-22.6-10.5z"/><path class="st3" d="M343.9 274.8c0 3.5-.6 7.1-1.6 10.4-.5-.5-.9-1.1-1.2-1.7-1.6-2.4-3.1-4.8-4.7-7.2-1.2-2.2-2.8-4.1-4.8-5.6-2-1.4-4.8-2-7-.7-1.9 1.1-2.8 3.4-3 5.6-.1 2.2 0 4.4.2 6.6.1.8-.1 1.7-.6 2.4-.7.6-1.6 1-2.6 1l-3 .4c-1.1.4-2.3-.2-2.7-1.3v-.1c-2.5-4.5-4.2-10.1-8.9-12.3-2.9-1.3-6.7-1.2-8.5-3.8-1.3-1.8-1.1-4.1-.7-6.3.4-2.4 1-4.8 1.8-7.1.5-1.6 1.7-4.9-.9-5.2-1.8-.2-4.2 1.7-5.1 3s-1.1 3.1-1.8 4.7c-1.2 2.6-3.4 4.7-6.1 5.7-1.4.6-2.8.9-4.2 1.1 5.7-17.7 24.7-27.4 42.4-21.7 13.6 4.4 23 17.4 23 32.1z"/><path class="st15" d="M290.3 252c-.9 1.4-1.1 3.1-1.8 4.6-1.2 2.6-3.4 4.7-6.1 5.7-2.7 1-5.6 1.5-8.4 1.5-4.7.1-9.9-.6-12.9-4.1 2.2-1.7 3.6-4.2 4-7 .3-2.1-.1-4.5 1.2-6.3.6-.8 1.4-1.4 2.3-1.9 5.2-3.6 9.3-8.5 14.1-12.8s10.4-7.9 16.8-8.1c8.5-.3 16 5.7 24.4 6.9 2.6.4 5.2.2 7.8.9 2.8.9 5.5 2.2 7.9 4 2.2 1.3 4.1 2.9 5.6 4.8 1.1 1.7 1.9 3.6 2.3 5.5 1.1 4.1 1.8 8.4 2 12.7.2 4.5 0 9 .5 13.5s1.9 9 5 12.3c-2.2.7-4.5 1.2-6.8 1.6-1.4.3-3 .2-4.3-.3-1.1-.7-2-1.7-2.6-2.9l-4.7-7.2c-1.2-2.2-2.8-4.1-4.8-5.6-2-1.4-4.8-2-7-.7-1.9 1.1-2.8 3.4-3 5.6-.1 2.2 0 4.4.2 6.6.1.8-.1 1.7-.6 2.4-.7.6-1.6 1-2.6 1l-3 .4c-1.1.4-2.3-.2-2.7-1.3v-.1c-2.5-4.5-4.2-10.1-8.9-12.3-2.9-1.3-6.7-1.2-8.5-3.8-1.3-1.8-1.1-4.1-.7-6.3.4-2.4 1-4.8 1.8-7.1.5-1.6 1.7-4.9-.9-5.2-2.2-.4-4.7 1.5-5.6 3z"/><path class="st3" d="M366.5 331c2.5-.4 5.2-.6 7.6.4-6.2-2.5-16.2-1.6-21.8 1.9.4 1.2 12.2-2 14.2-2.3zM369.4 339.2c6.1.4 12.5 1.3 18.3-.7-4.9-1.7-10.2-.6-15.4-1.1-4.1-.4-8.3-1.8-12.3-.8-1.7.4-7.8 3.3-7.4 5.3 5.4-2.3 11.1-3.2 16.8-2.7zM353.1 352.7c1.3-.1 2.6 0 3.8.4 4.6 1.1 9.3 1.6 14.1 1.5 3.6 0 7.5-.5 10.2-3l-28.1 1.1zM333.3 384c4.3 2 9 2.8 13.8 2.5 4.7-.3 9.3-1.2 13.8-2.7 2-.6 4.2-1.3 5.4-3.1l-33 3.3zM377.6 388.4c9.4 5.4 19.8 8.6 30.5 9.5-5.4-2.2-10.9-4.2-16.4-6.2-5.6-2-11.4-3.5-17.2-4.6 1.1.2 2.2.6 3.1 1.3zM392.7 382.6c1.9.3 3.8.4 5.7.3 1 0 2.2-.1 2.8-1-4.3.2-8.5-.9-12.7-1.9-1.2-.3-3.3-.9-4.3-.2 1.8 1.4 6.1 2.4 8.5 2.8zM418.5 472c2.2 3.9 4.5 7.8 7.6 11 1.8 1.8 3.7 3.4 5.7 4.9-3.7-9.5-7.5-19-13.4-27.3-1.5-2.1-3.7-5.1-6.5-5.4-.8 2.3 1.2 6.4 2.1 8.6 1.4 2.8 2.9 5.5 4.5 8.2zM309.2 401.2c-.2 1.6-.3 3.4.6 4.7.5.6 1.1 1.1 1.9 1.3-.5-.1-1-4.8-1.1-5.5-.2-1.3 0-3.8-.9-4.7-.3 1.4-.4 2.8-.5 4.2zM314.4 399.4c.7 2.8 2.5 5.3 5 6.8-1.8-2.2-2.3-5-3.8-7.4-.5-.8-1.1-1.8-2-2 .2.9.4 1.7.8 2.6zM310 370.6c-3 1.8-6.6 2.2-9.9 1.2-.8-.2-2.5-1-2.1-2.1s2.5-.3 3.3-.2l4.4.5c.7.1 3.6 1 4.3.6zM295.2 377.7c2-.3 3.9 1.2 5.8 1.9 2.1.7 4.4 1 6.6.9 1.1 0 2.4-.1 3.1-1-5.2-1.2-10-2.5-15.5-1.8z"/><path class="st14" d="M320 317.6h.3l2.5 8.8-2.8 3z"/><g class="st17"><path d="M265.8 247.7c-.3 1.4-.5 2.9-.5 4.4.1-.5.2-.9.3-1.4.1-1 .1-2 .2-3zM295.6 248.9c1 .1 1.7.9 1.7 1.9v.1c.5-1.7.7-3.7-1.3-4-1.8-.2-4.2 1.7-5.1 3s-1.1 3.1-1.8 4.7c-1.2 2.6-3.4 4.7-6.1 5.7-2.7 1-5.6 1.5-8.4 1.5-4.2.1-8.9-.5-12-3.3-.4.4-.8.8-1.2 1.1 3 3.6 8.2 4.3 12.9 4.1 2.9 0 5.7-.5 8.4-1.5s4.9-3.1 6.1-5.7c.6-1.5.8-3.3 1.8-4.6s3.2-3.3 5-3zM348.4 283.7c-1.4.3-3 .2-4.3-.3-1.1-.7-2-1.7-2.6-2.9-1.6-2.4-3.1-4.8-4.7-7.2-1.2-2.2-2.8-4.1-4.8-5.6-2-1.4-4.9-2-7-.7-1.9 1.1-2.8 3.4-3 5.6v.3c.4-1.6 1.3-3 2.7-3.9 2.1-1.3 5-.7 7 .7 1.9 1.6 3.5 3.5 4.8 5.6 1.6 2.4 3.1 4.8 4.7 7.2.6 1.2 1.5 2.1 2.6 2.9 1.4.6 2.9.7 4.3.3 2.3-.3 4.6-.9 6.8-1.6l-1.2-1.5c-1.7.5-3.5.9-5.3 1.1zM321.6 281.6c-.7.6-1.6 1-2.6 1l-3 .4c-1.1.4-2.3-.2-2.7-1.3v-.1c-2.5-4.5-4.2-10.1-8.9-12.3-2.9-1.3-6.7-1.2-8.5-3.8-.9-1.6-1.3-3.4-.9-5.2 0 .3-.1.6-.2.9-.4 2.1-.5 4.5.7 6.3 1.9 2.6 5.6 2.5 8.5 3.8 4.7 2.2 6.4 7.8 8.9 12.3.2.6.6 1 1.1 1.4.5.2 1.1.2 1.6.1l3-.4c1 0 1.9-.4 2.6-1 .5-.7.7-1.5.6-2.4 0 .1-.1.2-.2.3z"/></g><path class="st1" d="M735.4 517.4l-6.4-.9v-94.6l1.3.4 4 1.2V436.8l.1 8.5v11.5l.5 42.6v1.1l.2 15v.2l.3 1.7z"/><path class="st18" d="M739 517.9l-3.6-.5v-1.9l-.2-15v-1.1l-.5-42.6V445.2l-.1-8.5v-13.3h3.8V435.6l.1 9.1v9.7l.4 44.7v1.2l.1 14.9v2.7zM739 523.2z"/><path class="st1" d="M1128 410.1v81.7c-1.9 1.3-3.8 2.6-5.8 3.9l-.1-68v-7.2l5.9-10.4z"/><path class="st18" d="M1132.2 409v79.7c-1.4 1.1-2.8 2.1-4.2 3.2v-81.7l4.2-1.2z"/><path class="st1" d="M1039.3 524.7c-2.5.5-4.9 1-7.4 1.4l-.1-73.9V449l7.1-3v6.8l.4 71.9z"/><path class="st18" d="M1044 443.7v80c-1.6.3-3.1.7-4.7 1l-.3-71.9V446l.5-.2 4.5-2.1z"/><path class="st1" d="M620.2 502.6l-6.7-.7-.8-83.3v-4h6.5v4.6l1 83.4z"/><path class="st18" d="M625.1 503.1l-5-.5-1-83.5v-4.6h5v5l1 83.6z"/><path class="st3" d="M1039.4 445.8l4.6-2.1v10.1l-4.4 1.5zM1132.2 409v15.4l-4.2 1.4-5.9 2v-7.3l5.9-10.4z"/><path class="st5" d="M1132.2 379.3V422l-92.6 30.9-.6-45.7z"/><path class="st4" d="M611.5 376.3l121.7-23.2 399 26.2-93.2 27.9z"/><path class="st3" d="M624.2 414.6l.1 5-5.1-.5-6.5-.5v-4zM738.3 429.4l-3.9-.4-5.4-.4v-6.7l5.4 1.6h3.8z"/><path class="st5" d="M611.5 376.3v39.8l428.1 36.8-.6-45.7z"/><path class="st5" d="M950.9 423.6H895v-20.3l55.9 3.9z"/><path class="st3" d="M950.9 423.6H895v-20.3l55.9 3.9z"/><path class="st3" d="M819.9 398.9v32l214.6 16.3v-34.1l-83.7-4.7-8.3 7.4-34.2-2.4-12.1-8.9z"/><path class="st19" d="M818.7 397.7v32l214.6 16.4v-34.2l-83.7-4.7-8.3 7.4-34.1-2.4-12.2-8.9z"/><path class="st5" d="M686.3 389.1l50.7 3.5-.5 16.2h-33.2l-22.2-8.8z"/><path class="st3" d="M686.3 389.1l50.7 3.5-.5 16.2h-33.2l-22.2-8.8z"/><path class="st3" d="M618.6 384.6v28.8l194.7 15.5v-30.6l-75.1-4.5-8 6-30.3-1.8-12.4-7.8z"/><path class="st19" d="M617.4 383.4v28.8l194.8 15.5v-30.6l-75.2-4.5-8 6-30.3-1.8-12.4-7.7z"/><path class="st3" d="M1034.5 383.5l27.3 1.8-45.2 13.6-23-1.7z"/><path class="st19" d="M1034.5 382.4l27.3 1.7-45.2 13.6-23-1.7z"/><path class="st18" d="M1031.3 385.4c1.1-.5 2.2.4 3.4.6.7.1 1.3 0 2 .1 1.3.2 2.7 1.1 3.9.6l-9.3-1.3zM1029.9 386.2c1.1-.5 2.2.4 3.4.6.7.1 1.3 0 2 .1 1.3.2 2.7 1.1 3.9.6l-9.3-1.3zM1026.6 387.9c1.1-.5 2.2.4 3.4.6.7.1 1.3 0 2 .1 1.3.2 2.7 1.1 3.9.6l-9.3-1.3z"/><path class="st3" d="M850.3 368.5l60.9 4-13 18.7-66.9-7.2z"/><path class="st2" d="M849.2 367.4l60.8 3.9-12.9 18.7-67-7.2z"/><path class="st20" d="M851.8 368.7l53.1 3.3-11.3 15.2-58.4-5.9z"/><path class="st2" d="M739 523.2z"/><path class="st3" d="M739 523.2z"/><path class="st2" d="M738.6 523.2zM816.2 521v.8c0 .3 0 .5-.1.8-.2 1.8-.7 3.5-1.5 5.1-25.2-2.8-50.4-6.2-75.6-9.7l-3.6-.5-6.4-.9-5.4-.8c-5.9-.1-11.8-.7-17.6-1.7-3.7-.5-7.3-1.3-10.9-2.3-16-2.2-32.1-4.3-48.1-6.2l-2.1-.2c.4-1.7.7-2.7.7-2.7s3.4-13.5 6.3-28.6l1.8-9.9c.4-2.7.8-5.3 1.1-7.8.2-1.4.3-2.8.5-4.1.1-.7.1-1.3.2-2s.1-1.4.2-2.1.1-1.3.1-1.9v-.9-4.2c-.5-7.2-1.6-14.4-3.4-21.4l-.9-3.6c-.1-.4-.2-.8-.3-1.1-3.2-12.5-7-22.7-7-22.7v-.2-.1-.2-1.4-.4c.1-1 .3-2.1.5-3.1.1-.4.2-.7.4-1.1.7-2 2.4-3.6 4.5-4.2 2.8-.7 7.1 0 13.6 3.8 1.1.6 2.1 1.3 3 2.1.5.4 1 .8 1.4 1.2 7.4 6.9 11.3 18.3 13.4 28.6.1.4.2.7.2 1.1.2 1.3.5 2.5.7 3.8.3 2.2.6 4.2.8 6.2 0 .5.1 1 .2 1.5s.1 1 .1 1.5c.1 1.6.2 3 .3 4.2.2 3.2.1 5.2.1 5.2v1.5c0 .4-.1.9-.2 1.5-.1.9-.2 1.9-.3 3-.1.8-.2 1.8-.3 2.7-.2 2-.5 4.3-.7 6.8-.1.5-.1.9-.2 1.4-.2 2.1-.5 4.3-.7 6.5l-.9 7.5c-.1.5-.1 1.1-.2 1.6-.7 6-1.5 11.5-2.1 14.8-.1.5-.2 1-.2 1.5v1.9c.5 8.5 9.7 10 9.7 10l41.9-.8 6.2-.1 3.6-.1 32.7-.7 3-.1 16.2-.3c1.1 0 2.2.1 3.3.4 5 1.3 9.8 3.4 14.2 6.2 1.4.9 2.6 2 3.7 3.2.1 0 .1.1.1.2 2.2 2.7 3.6 5.9 3.9 9.4v.7c.1.3.1.8.1 1.4z"/><path class="st3" d="M738.6 523.2zM816.2 521v.8c0 .3 0 .5-.1.8-.2 1.8-.7 3.5-1.5 5.1-25.2-2.8-50.4-6.2-75.6-9.7l-3.6-.5-6.4-.9-5.4-.8c-5.9-.1-11.8-.7-17.6-1.7-3.7-.5-7.3-1.3-10.9-2.3-16-2.2-32.1-4.3-48.1-6.2l-2.1-.2c.4-1.8.7-2.8.7-2.8s2.8-11 5.5-24.3c.2-.9.4-1.8.5-2.8l.3-1.4 1.8-9.9c.4-2.7.8-5.3 1.1-7.8.2-1.4.3-2.8.5-4.1.1-.7.1-1.3.2-2s.1-1.4.2-2.1.1-1.3.1-1.9v-.9-4.2c-.5-7.2-1.6-14.4-3.4-21.4l-.9-3.6c-.1-.4-.2-.8-.3-1.1-3.2-12.5-7-22.8-7-22.8v-.1-.1-.2-1.4-.4c.1-1 .2-2.1.5-3.1.1-.3.2-.7.4-1.1.7-2.2 2.5-3.8 4.7-4.3 2.8-.7 7.1.2 13.4 3.9 1.1.6 2.1 1.4 3.1 2.2.5.4.9.8 1.4 1.2 7.3 6.9 11.2 18.3 13.3 28.6.1.4.2.8.2 1.1.2 1.3.5 2.5.7 3.8.3 2.2.6 4.2.8 6.2 0 .5.1 1 .2 1.5s.1 1 .1 1.5c.1 1.6.2 3 .3 4.2.2 3.2.1 5.2.1 5.2v1.5c0 .4-.1.9-.2 1.5-.1.9-.2 1.9-.3 3-.1.8-.2 1.7-.3 2.7-.2 2-.5 4.3-.7 6.8-.1.5-.1.9-.2 1.4-.2 2.1-.5 4.3-.7 6.5l-.9 7.5c-.1.5-.1 1.1-.2 1.6-.7 6-1.5 11.4-2.1 14.7-.1.5-.2 1.1-.2 1.6v1.9c.6 8.4 9.7 9.8 9.7 9.8l41.9-.8 6.2-.1 3.6-.1 32.7-.6 3.1-.1 16.2-.3c1.1 0 2.2.1 3.3.4 5.1 1.3 9.9 3.4 14.3 6.2 1.4.9 2.7 2 3.7 3.3.1 0 .1.1.1.2 2.2 2.7 3.6 5.9 3.9 9.4v.7c-.1.2-.1.7-.1 1.3z"/><path class="st2" d="M738.6 523.2zM816.3 527.8l-1.7-.2c-25.2-2.8-50.4-6.2-75.6-9.7l-3.6-.5-6.4-.9-5.4-.8c-5.9-.1-11.8-.7-17.6-1.7-3.7-.5-7.3-1.3-10.9-2.3-16-2.2-32.1-4.3-48.1-6.2.3-1.4.6-2.8 1-4.2 0 0 9.5-37.4 10.1-57.3.2-7.1-1.2-15.9-3.1-24.3l-.9-3.6-.3-1.1c-3.4-13.2-7.4-24.2-7.4-24.2-.1-1.4 0-2.7.2-4.1.1-.4.1-.7.2-1.1.4-1.7 1.3-3.2 2.6-4.3.1-.1.1-.1.2-.1 2.6-2 7.3-2.1 15.8 2.8 1.7 1 3.3 2.2 4.7 3.6l1.2 1.2c6.8 7.3 10.3 18.5 12.2 28.5l.2 1.1c.2 1.2.4 2.5.6 3.7v.1c.2 1.6.4 3.1.6 4.5.5 4.2.7 8.5.7 12.8 0 0-.4 4-1 9.6-.2 2.2-.5 4.7-.8 7.4v.4l-.2 1.4c-.5 4.6-1.1 9.5-1.6 14.1-.1.6-.1 1.1-.2 1.7-.6 5.1-1.3 9.7-1.8 12.7-2.1 11.6 9.5 13.4 9.5 13.4l39.5-.8 6.2-.1 3.6-.1h2l31.4-.6h3l18-.4c1.1 0 2.2.1 3.3.4 5.1 1.3 9.9 3.4 14.3 6.1 1.2.8 2.4 1.8 3.4 2.9l.2.2c4.8 5.6 5.6 13.6 1.9 20z"/><path class="st8" d="M957.7 347l12.2 26.2h-2.1l-14.3-25.8z"/><path class="st3" d="M957.7 347l12.2 26.2h-2.1l-14.3-25.8z"/><path class="st8" d="M957.7 373.2h12.2v2.8l-12.2.3z"/><path class="st3" d="M957.7 373.2h12.2v2.8l-12.2.3z"/><path class="st8" d="M862.5 250.6v91.5c0 3.8 3 6.8 6.8 6.8h152.5c3.7 0 6.8-3 6.8-6.7v-.1l-1.7-91.6c-.1-3.7-3.1-6.6-6.8-6.6H869.3c-3.7 0-6.8 3-6.8 6.7z"/><path class="st3" d="M862.5 250.6v91.5c0 3.8 3 6.8 6.8 6.8h152.5c3.7 0 6.8-3 6.8-6.7v-.1l-1.7-91.6c-.1-3.7-3.1-6.6-6.8-6.6H869.3c-3.7 0-6.8 3-6.8 6.7z"/><path class="st8" d="M857 250.6v91.5c0 3.8 3 6.8 6.8 6.8h152.5c3.7 0 6.7-3 6.7-6.7v-.1l-1.7-91.6c-.1-3.7-3.1-6.6-6.7-6.6H863.9c-3.8-.1-6.8 2.9-6.9 6.7z"/><path class="st10" d="M863 256.4v80.5c0 3.8 3 6.8 6.8 6.8H1011c3.7 0 6.8-3 6.8-6.8v-80.6c0-3.7-3-6.7-6.8-6.7H869.8c-3.7 0-6.8 3-6.8 6.8z"/><path class="st8" d="M924.1 347.4l13.4 25.8h30.3l-15.1-29.5zM913.5 373.2l-2.3 2.8h46.5v-2.8z"/><linearGradient id="SVGID_3_" gradientUnits="userSpaceOnUse" x1="-1193.623" y1="-150.21" x2="-1193.623" y2="172.434" gradientTransform="matrix(1 0 0 -1 1979.37 383.97)"><stop offset="0" stop-color="gray" stop-opacity=".25"/><stop offset=".54" stop-color="gray" stop-opacity=".12"/><stop offset="1" stop-color="gray" stop-opacity=".1"/></linearGradient><path class="st21" d="M717.6 278.4c-3.3-9.4-3.3-19.8-7.3-28.8-.6-1.3-1.2-2.6-1.7-4-.3-.8-.4-1.7-.5-2.6l-.2.1-.2.1-.2.1-.2.1c.1.3.1.6.2.9.5 1.4 1.1 2.7 1.7 4 4.1 9.1 4.1 19.5 7.5 29 .1.4.3.8.6 1.1.1.1.3.2.5.3-.2-.2-.2-.2-.2-.3zm0 0c-3.3-9.4-3.3-19.8-7.3-28.8-.6-1.3-1.2-2.6-1.7-4-.3-.8-.4-1.7-.5-2.6l-.2.1-.2.1-.2.1-.2.1c.1.3.1.6.2.9.5 1.4 1.1 2.7 1.7 4 4.1 9.1 4.1 19.5 7.5 29 .1.4.3.8.6 1.1.1.1.3.2.5.3-.2-.2-.2-.2-.2-.3zm0 0c-3.3-9.4-3.3-19.8-7.3-28.8-.6-1.3-1.2-2.6-1.7-4-.3-.8-.4-1.7-.5-2.6l-.2.1-.2.1-.2.1-.2.1c.1.3.1.6.2.9.5 1.4 1.1 2.7 1.7 4 4.1 9.1 4.1 19.5 7.5 29 .1.4.3.8.6 1.1.1.1.3.2.5.3-.2-.2-.2-.2-.2-.3zm0 0c-3.3-9.4-3.3-19.8-7.3-28.8-.6-1.3-1.2-2.6-1.7-4-.3-.8-.4-1.7-.5-2.6l-.2.1-.2.1-.2.1-.2.1c.1.3.1.6.2.9.5 1.4 1.1 2.7 1.7 4 4.1 9.1 4.1 19.5 7.5 29 .1.4.3.8.6 1.1.1.1.3.2.5.3-.2-.2-.2-.2-.2-.3zm0 0c-3.3-9.4-3.3-19.8-7.3-28.8-.6-1.3-1.2-2.6-1.7-4-.3-.8-.4-1.7-.5-2.6l-.2.1-.2.1-.2.1-.2.1c.1.3.1.6.2.9.5 1.4 1.1 2.7 1.7 4 4.1 9.1 4.1 19.5 7.5 29 .1.4.3.8.6 1.1.1.1.3.2.5.3-.2-.2-.2-.2-.2-.3zm0 0c-3.3-9.4-3.3-19.8-7.3-28.8-.6-1.3-1.2-2.6-1.7-4-.3-.8-.4-1.7-.5-2.6l-.2.1-.2.1-.2.1-.2.1c.1.3.1.6.2.9.5 1.4 1.1 2.7 1.7 4 4.1 9.1 4.1 19.5 7.5 29 .1.4.3.8.6 1.1.1.1.3.2.5.3-.2-.2-.2-.2-.2-.3zm0 0c-3.3-9.4-3.3-19.8-7.3-28.8-.6-1.3-1.2-2.6-1.7-4-.3-.8-.4-1.7-.5-2.6l-.2.1-.2.1-.2.1-.2.1c.1.3.1.6.2.9.5 1.4 1.1 2.7 1.7 4 4.1 9.1 4.1 19.5 7.5 29 .1.4.3.8.6 1.1.1.1.3.2.5.3-.2-.2-.2-.2-.2-.3zm173.7 93.2l-.8-.1 1-.2c.1 0 .2 0 .3-.1 1.1-.2 2.2-.5 3.3-.8l1.1-.3h.2c9.3-2.8-1.5-5.3-15.4-7.2-14.9-2-33.2-3.3-33.2-3.3l-5.7.8h-.1c-7 .9-18 2.4-19.8 3-2.1.7-20.3 1.6-26.6 1.9-.2-.4-.5-.8-.9-1l-18.7-.9v2.6l-.1-.1c-.2-3.5-1-6.9-2.5-10l-.1-.3c-4.8-9.1-5.8-11.4-5.8-11.4 0-.2-.1-.3-.1-.5-1.6-5.6-7.6-15.4-17.7-29.4l-.3-.5-1.3-6.2-.2-1.1h-6.4c.9-5.4 2.4-10.7 4.4-15.8.1-.3.3-.6.4-1l.1-.2c.1-.3.3-.7.5-1h1.1c15.5-.6 28.2-12.8 29.2-28.3v-.1c0-.6.1-1.2.1-1.9 0-5.3-1.4-10.4-4-15-.1-.1-.2-.3-.2-.4l-.2-.3-.4-.6c2.3-.5 5 .5 7-.8.7-.5 1.3-1.2 1.7-2.1.5-.9.8-2 1-3v-.2-.1c.1-.7.2-1.4.2-2.1 0-1.4-.2-2.8-.7-4.2-1.2-3-3.5-5.3-6.4-6.5-1.5-.5-3.1-.9-4.7-1.3-6.4-1.7-11.8-5.9-18-8.3-4.3-1.6-8.9-2.3-13.5-2.1-2.8.1-5.5.8-8 2-1.9 1.1-3.7 2.4-5.3 3.9-4.5 3.5-9.5 6.5-13.4 10.7-.7.8-1.3 1.6-1.9 2.4-.3.5-.7 1-1 1.5-.6-.7-1.5-1.1-2.4-1h-.5c-.4 0-.8.1-1.2.1-1 .2-8.5 2.1-8.5 3.2-3.1 1.3-6 3.1-8.6 5.3-6 5.5-7.3 14.2-8.1 22.2-1 9.3-1.3 18.7-1 28 .1 3.4.4 6.8.2 10.2-.3 4-.9 8-1.8 11.9-.9 4.1-1.8 8.1-2.8 12.2-.5 2-1.2 4.2-3.2 4.9l.7.1c-.2.1-.5.3-.7.4.8.1 1.7.2 2.5.2h.6c.5 0 1-.1 1.4-.2.7-.2 1.3-.4 1.8-.8.1-.2.2-.4.2-.6.6-.5 1-1.1 1.2-1.9.1 1.1 0 2.3-.2 3.4 0 .2-.1.3-.1.5-.5 2.4-1.7 4.7-3.4 6.5l1-.8c-.3.4-.6.8-1 1.2 1.4-1.1 2.9-2.2 4.3-3.3.1-.1.2-.1.2-.2l2.5-1.9v2.4c-.2 6.9-.5 23.8 1.1 27.9.1.2.2.5.3.7 1.8 4.6 2.6 6.6 2.3 9-.2 1.7 1.1 6.5 1.8 10.2.4 1.5.5 3.1.3 4.6-.1.9-.1 1.9.2 2.8.1.4.2.9.3 1.4 0 .2.1.3.1.5.9 3.6 2.2 8.1.8 9.9-.4.6-.8 1.3-1 2-1.1 3-1.3 7.1-2.6 8.8-1.5 1.9-1 5.4-.9 5.8 0 0-.1.4-.2 1-.2.8-.4 2.1-.8 3.6v.1c-.5 2-1 4-1.7 5.9-.5 1.4-1 2.3-1.6 2.5-2 .7-3 10.1-3 10.1s-4.6 7.4-3.7 9.3c.2.4.4.8.7 1.2l-.4.7c-2.5 3.9-6 11.1-2.6 14.9 1.2 1.2 2.6 2.3 4.1 3.1-.2.4-.4.8-.6 1.3-3.8 8.9-9.6 29.4 12.8 38.1 2.2.9 4.5 1.6 6.8 2.2 3.6 1 7.2 1.8 10.9 2.3 5.3.8 10.6 1.3 16 1.4 2.4.1 4.7.1 7 .1s4.3-.1 6.4-.2c1.2 0 2.4-.1 3.6-.2 6.9-.4 13.7-1.1 20.5-2.3l32-5.7s13.4.5 18.4 3.3l.2.1s.8-.5 2.2-1.4c.6-.4 1.3-.9 2.1-1.5 5.1-3.7 13.5-11 19.1-21.2l.1-.2 1.1-.1h.2l.8-.1 1.6-.2H837.6c4-.6 7.9-1.2 7.9-1.2s.2 4.5.3 9.7c.1 1.6.1 3.2.2 4.8.2 5.5.4 10.5.4 10.6s4.1 11 8.7 21.9l3.6.3c9.5.8 19 1.4 28.5 1.9l3.5.2 2.2.1c-1.6-9.7-2.9-18.9-2.9-18.9l-5.9-27.7s-.6-5.7-5.1-31.2c-3.6-20.6-24.8-18.8-32.7-17.4-.8.2-1.5.3-2 .4v-1.5s-15.2 1.3-29 1.9l-3.3.1c-3.2.1-6.2.2-8.9.2-2.3 0-4.7-.1-7-.3-10.6-1.2-22.8 2.4-22.8 2.4s-15.5 2.5-17.6 1.6c-.6-.2-1.2-.3-1.8-.4h-1c.7-.3 1.1-1 1-1.8-.6-2.6-.9-6.1.9-8.5.8-1.1 2-2.8 3.1-4.3l2.7-3.7v-.3l.1-1.1.7-9.7 1.6-9 .1-.6.1-.8.1-.6.3.1c4.4 1.5 9.5 2.6 13 1.4h.1c.3-.1.6-.2.8-.3h.2v.7l.1 1.2 16.7-.9h.2s.7-3.2 1.3-7.7c0-.4.1-.7.2-1.1s.2-1 .2-1.5c0-.2.1-.5.1-.7h1c7.7-.3 18.5-.9 22.9-2.5.5-.2 1.1-.5 1.5-.8 1.9-1.6 8.6-3.9 15.2-5.9l2.6-.8c1.9-.6 3.8-1.1 5.4-1.5 3.8-1 6.5-1.7 6.5-1.7s26 2.4 45.4-3.2l.3-.1c7.3-2 2.7-3.9-6-5.6zm-184.4-130c0 .3.1.6.1.9 0 .1 0 .3.1.4 0 .1 0 .3.1.4.1.3.1.6.2.9.5 1.4 1.1 2.7 1.7 4 4.1 9.1 4.1 19.5 7.5 29 .1.4.3.8.6 1.1.1.1.3.2.5.3l.2.1h.3l-.1.2s0 .1-.1.1l-.1.1c-1.3 2.3-2.8 4.5-4.2 6.4-1.2.2-2.4.7-3.5 1.4l-.6.4-.2.2c-.3-1.7-.8-3.4-1.3-5.1-2.4-9.1-3.7-18.4-3.9-27.7v-.6-1.3c0-2.4.1-4.8.2-7.2 0-1.1.3-2.2.8-3.2.6-.5 1.1-.8 1.7-.8zm10.7 36.8c-3.3-9.4-3.3-19.8-7.3-28.8-.6-1.3-1.2-2.6-1.7-4-.3-.8-.4-1.7-.5-2.6l-.2.1-.2.1-.2.1-.2.1c.1.3.1.6.2.9.5 1.4 1.1 2.7 1.7 4 4.1 9.1 4.1 19.5 7.5 29 .1.4.3.8.6 1.1.1.1.3.2.5.3-.2-.2-.2-.2-.2-.3zm0 0c-3.3-9.4-3.3-19.8-7.3-28.8-.6-1.3-1.2-2.6-1.7-4-.3-.8-.4-1.7-.5-2.6l-.2.1-.2.1-.2.1-.2.1c.1.3.1.6.2.9.5 1.4 1.1 2.7 1.7 4 4.1 9.1 4.1 19.5 7.5 29 .1.4.3.8.6 1.1.1.1.3.2.5.3-.2-.2-.2-.2-.2-.3zm0 0c-3.3-9.4-3.3-19.8-7.3-28.8-.6-1.3-1.2-2.6-1.7-4-.3-.8-.4-1.7-.5-2.6l-.2.1-.2.1-.2.1-.2.1c.1.3.1.6.2.9.5 1.4 1.1 2.7 1.7 4 4.1 9.1 4.1 19.5 7.5 29 .1.4.3.8.6 1.1.1.1.3.2.5.3-.2-.2-.2-.2-.2-.3zm0 0c-3.3-9.4-3.3-19.8-7.3-28.8-.6-1.3-1.2-2.6-1.7-4-.3-.8-.4-1.7-.5-2.6l-.2.1-.2.1-.2.1-.2.1c.1.3.1.6.2.9.5 1.4 1.1 2.7 1.7 4 4.1 9.1 4.1 19.5 7.5 29 .1.4.3.8.6 1.1.1.1.3.2.5.3-.2-.2-.2-.2-.2-.3zm0 0c-3.3-9.4-3.3-19.8-7.3-28.8-.6-1.3-1.2-2.6-1.7-4-.3-.8-.4-1.7-.5-2.6l-.2.1-.2.1-.2.1-.2.1c.1.3.1.6.2.9.5 1.4 1.1 2.7 1.7 4 4.1 9.1 4.1 19.5 7.5 29 .1.4.3.8.6 1.1.1.1.3.2.5.3-.2-.2-.2-.2-.2-.3zm0 0c-3.3-9.4-3.3-19.8-7.3-28.8-.6-1.3-1.2-2.6-1.7-4-.3-.8-.4-1.7-.5-2.6l-.2.1-.2.1-.2.1-.2.1c.1.3.1.6.2.9.5 1.4 1.1 2.7 1.7 4 4.1 9.1 4.1 19.5 7.5 29 .1.4.3.8.6 1.1.1.1.3.2.5.3-.2-.2-.2-.2-.2-.3z"/><path class="st22" d="M751 283.7c-1.6 1.8-2.9 3.8-3.8 5.9-.2.3-.3.6-.4 1-4.4 10-5.9 24.1-5.9 24.1s-2.7-1.2-6.6-3.1c-7.2-3.6-18.4-9.5-22.9-14.3-2-2.1-2.7-4-1.1-5.4.4-.3.7-.6 1.1-1 1.3-1.3 2.4-2.7 3.5-4.1 1.4-2 2.9-4.2 4.2-6.5.8-1.3 1.5-2.7 2.2-4l.3-.5c3-5.7 5.2-10.5 5.2-10.5s1 .3 2.6.9c7.4 2.6 28 10.7 21.6 17.5zM887.9 515.4s1.2 9.1 2.8 18.6l-3.5-.2c-9.5-.5-19-1.1-28.5-1.9-5.4-12.5-11-27.4-11-27.6s-.2-5.1-.4-10.6c-.1-1.9-.1-3.9-.2-5.8-.1-2.8-.2-5.4-.2-6.9 0-1.1-.1-1.7-.1-1.7s-5.1.9-9.8 1.5l-2 .3c-1.1.1-2 .2-2.8.3-.7.1-1.5.1-2.2 0-1.6-.6 1.7-16 1.7-16l8.2-19.8 2.3-5.5 1-.2c.5-.1 1.2-.3 1.9-.4 7.8-1.4 28.6-3.2 32.1 17.3 4.4 25.4 5 31.1 5 31.1l5.7 27.5zM895.8 556h-2.5 2.5z"/><path class="st23" d="M887.9 515.4s1.2 9.1 2.8 18.6l-3.5-.2c-9.5-.5-19-1.1-28.5-1.9-5.4-12.5-11-27.4-11-27.6s-.2-5.1-.4-10.6c-.1-1.9-.1-3.9-.2-5.8-.1-2.8-.2-5.4-.2-6.9 0-1.1-.1-1.7-.1-1.7s-5.1.9-9.8 1.5l-2 .3c-1.1.1-2 .2-2.8.3-.7.1-1.5.1-2.2 0-1.6-.6 1.7-16 1.7-16l8.2-19.8 2.3-5.5 1-.2c.5-.1 1.2-.3 1.9-.4 7.8-1.4 28.6-3.2 32.1 17.3 4.4 25.4 5 31.1 5 31.1l5.7 27.5zM895.8 556h-2.5 2.5z"/><path class="st22" d="M887.1 533.8c-9.5-.5-19-1.1-28.5-1.9l-3.6-.3-1.6-.1c-4.5-10.8-8.5-21.4-8.5-21.6s-.2-5.1-.4-10.6c-.2-6.8-.5-14.4-.5-14.4l-.7.1H842.7l-1.6.3-.9.1c-1.6.3-3.5.5-5.4.8l-.4.1-1.1.1-1 .1c-.8.1-1.5.2-2.2.2l-.8.1c-.7.1-1.5.1-2.2 0-1.6-.6 1.7-16 1.7-16l10.4-25.2.4-.1c.5-.1 1.7-.4 3.3-.7.6-.1 1.2-.2 1.9-.3 9.1-1.2 26.3-.8 29.5 17.7 4.4 25.4 5 31.1 5 31.1l5.8 27.6c.2.1.9 5.8 2 12.9z"/><path class="st3" d="M844.6 499.3c-.2-6.8-.5-14.4-.5-14.4s-10 1.8-14.7 2.1l.9-3.2s17.1-4.7 17.5-2.1c.3 1.9-1.9 11.9-3.2 17.6z"/><path class="st3" d="M845 439.4v7.2s-.8 13-7.5 32.9c-.1.4-.3.8-.5 1.3-.7 1.9-1.5 3.8-2.5 5.6-1.9.3-3.7.5-5 .6-.7.1-1.5.1-2.2 0-1.6-.6 1.7-16 1.7-16l10.4-25.2.4-.1 2.3-5.5c-.1 0 1-.4 2.9-.8z"/><path class="st15" d="M843 438.3v8.4s-.8 13-7.5 32.9c-.2.5-.4 1-.5 1.5s-.4 1.2-.7 1.7c-.5 1.3-1.2 2.6-1.8 3.9-5.2 9.9-13.2 17-18.3 20.9-.7.6-1.4 1.1-2 1.5-1 .7-1.7 1.2-2.2 1.5l-.5.3c-4.7-2.9-18.2-3.4-18.2-3.4l-31.4 5.7c-6.9 1.2-13.8 2-20.8 2.4l-3.6.2c-2.1.1-4.2.1-6.4.1-1.8 0-3.6 0-5.4-.1-5.9-.1-11.8-.7-17.6-1.7-3.2-.5-6.4-1.2-9.5-2.1-2.2-.6-4.4-1.4-6.6-2.2-22-8.6-16.3-29.1-12.6-38 .2-.5.4-.9.6-1.3.8-1.8 1.4-2.9 1.4-2.9l1.5-3.5 2.4-5.8.5-1.3.2-.4 1.8-4.3 25-3.2 18.4-2.4 5.6-.7 3.8-.5 7.2-.9 2.7-.3c1.7-.3 3.4-.4 5.1-.4.9 0 1.8.1 2.7.4 2 .9 17.2-1.6 17.2-1.6s11.9-3.6 22.3-2.4c5.2.4 10.3.4 15.5.1l1.3-.1 1.7-.1h.4c13.3-.6 28.3-1.9 28.3-1.9z"/><path class="st3" d="M753.1 463.4s-12 27.3-12.5 27.8-.5 9 0 8.5 17.1-37.4 17.1-37.4l-4.6 1.1zM811.2 440.3s-6.1 3.9-7.9 7.1-18.5 34.6-22.6 39.2c-3.4 4.1-6.5 8.5-9.2 13.1-.5.8-.5 6 2.4 1.1s2.2-5.8 7.9-12 12-20.2 14.4-22.9 5.8-11.2 10.1-16.2l8.1-9.5-3.2.1zM812.7 494.3s-4.2-2.9-8.2 2.1 8.2-2.1 8.2-2.1zM817.9 495.8s-3.5 6.1-5.2 6.6 5.2-6.6 5.2-6.6zM812.7 497.3s-2.8 4.9-5.2 4.4l5.2-4.4z"/><path class="st22" d="M793 366.1s25.7-1.1 28.3-1.9 25.1-3.8 25.1-3.8 66.9 4.7 47.8 10.4-44.9 3.3-44.9 3.3-25.2 6.6-29.1 10-32.5 3.5-32.5 3.5l5.3-21.5z"/><path class="st23" d="M793 366.1s25.7-1.1 28.3-1.9 25.1-3.8 25.1-3.8 66.9 4.7 47.8 10.4-44.9 3.3-44.9 3.3-25.2 6.6-29.1 10-32.5 3.5-32.5 3.5l5.3-21.5z"/><path class="st14" d="M701.5 307.5s-23.5 8-12.1 28.4 26.1 30 26.1 30l37.9 26.2s15.9 9.1 23.2 5.3l11.9-1 2-31.2s-10 7.8-20.9-3-24.3-18.1-25.4-23.9-29-35.8-42.7-30.8z"/><path class="st16" d="M775.9 373.5s12.3 4.4 11.8 4.6-11.8 4.5-11.8 4.5l.8 16.6 16.6-.9s6.1-30.3.8-33.3l-18.3-.8.1 9.3z"/><path class="st3" d="M775.9 373.5s12.3 4.4 11.8 4.6-11.8 4.5-11.8 4.5l.8 16.6 16.6-.9s6.1-30.3.8-33.3l-18.3-.8.1 9.3zM751 283.7c-1.6 1.8-2.9 3.8-3.8 5.9-.2.3-.3.6-.4 1-8.9 0-15.3-6.9-20.8-13.1-1-1.1-3.5.6-4.4-.7-.1-.1-.2-.3-.3-.5l.3-.5c3-5.7 5.2-10.5 5.2-10.5s1 .3 2.6.9c7.4 2.6 28 10.7 21.6 17.5z"/><path class="st22" d="M777 259.5c0 16.5-13.3 29.9-29.8 30.1h-.3c-8.6 0-16.9-3.7-22.6-10.2-1-1.1-1.9-2.4-2.8-3.6-9-14-4.9-32.6 9.1-41.6s32.6-4.9 41.6 9.1c3.2 4.8 4.8 10.4 4.8 16.2z"/><path class="st3" d="M746.4 446.2s-2.3 2.8-4.8 5.4c-1.9 2-4 3.8-5.3 4.3-3 1.1-16.8 11.5-16.8 11.5s-10.9 7.4-13.7 9.6-12.9.8-12.9.8-9.7-2.1-15.7-6c.6-1.4 1.3-2.8 2-4.2l6.3-15.3 25-3.2 35.9-2.9z"/><path class="st16" d="M745.9 444.3s-2.3 2.8-4.8 5.4c-1.9 2-4 3.8-5.3 4.3-3 1.1-16.8 11.5-16.8 11.5s-10.9 7.4-13.7 9.6-12.9.8-12.9.8-13.8-3-18.7-8.5c-3.4-3.8.1-10.9 2.5-14.8 1-1.7 1.8-2.8 1.8-2.8l67.9-5.5zM763.9 350.2c-8.3-.7-35.5-34-35.5-34l.6-.9 5.7-7.9H748l1.5 7.3c10.1 14.2 16.1 24.1 17.7 29.8 1.3 4.1.2 6-3.3 5.7z"/><path class="st3" d="M763.9 350.2c-8.3-.7-35.5-34-35.5-34l.6-.9c4.9 4.5 9.5 9.3 13.7 14.3 19.9 23.4 23.8 16.9 24.5 14.8 1.3 4.2.2 6.1-3.3 5.8zM745.9 444.3s-2.3 2.8-4.8 5.4c-1.3.5-2.7.8-4.2.9-3.2-.1-10.4 4.9-10.4 4.9s-12.9-.7-15.3.6-11.8 1.6-11.8 1.6c-17.1 4.9-21.8-2.5-23.1-5 1-1.7 1.8-2.8 1.8-2.8l67.8-5.6z"/><path class="st14" d="M775.6 372c0 .5-.1.9-.2 1.4s-.1.9-.2 1.3c-.3 2.5-1.1 4.9-2.2 7.1-2.2 3.6-8.9 17.8-8.9 17.8l-.5 2.6-.2 1.4-.2 1.3-1.6 9.6-.7 11s-4 5.6-5.7 8-1.5 6-.8 8.5-5.6 2.9-5.6 2.9-8.7 4.2-11.9 4.1-10.4 4.8-10.4 4.8-12.9-.7-15.3.6-11.8 1.6-11.8 1.6c-18.3 5.2-22.5-3.7-23.3-5.5s3.6-9.2 3.6-9.2 1-9.3 2.9-10.1 4.2-13.1 4.2-13.1-.7-3.8.8-5.8 1.5-7.9 3.5-10.7-2.2-12.1-1.5-14.6-2.3-12.3-2.1-14.8-.6-4.6-2.5-9.7c-1.7-4.3-1.2-23.7-1-29.2v-1.5s1.7-5.5 6.2-16.4c3.4-8.3 11-11.4 14.6-12.4.6-.2 1.2-.3 1.8-.5.9.1 1.7.3 2.6.6 3.5 1.2 10.6 4.6 20.7 14 4.5 4.2 8.7 8.6 12.6 13.3 22.8 26.8 24.6 14.3 24.6 14.3s1 2.3 5.7 11.4c2.8 5.1 3.3 10.9 2.8 15.9z"/><path class="st3" d="M738.2 306l-22.8-18.2s-8.2 1-11.6 14.8l23.5 20.6 10.9-17.2z"/><path class="st16" d="M738.2 306l-4 5.6-4.1 5.7-3.1 4.5-18.7-15.8-3.2-2.8-1.8-1.5c1.8-7.5 5.1-11.2 7.7-13 1.2-.9 2.5-1.5 4-1.8l23.2 19.1z"/><path class="st22" d="M895.2 378.1c-19.1 5.7-44.9 3.3-44.9 3.3s-25.2 6.5-29.1 10c-2.5 2.2-15.3 3-24 3.3-4.8.2-8.5.2-8.5.2l5.3-21.5 3.1-.1c6.9-.3 23.2-1.1 25.2-1.8 2.5-.8 25.1-3.8 25.1-3.8s66.9 4.7 47.8 10.4z"/><path class="st3" d="M775.3 374.6c-.3 2.5-1.1 4.9-2.2 7.1-2.2 3.6-8.9 17.8-8.9 17.8l-.9 5.4c-3.1-1.2-6.1-2.5-9-4.1l-37.9-26.2s-14.7-9.6-26.1-30 12.1-28.4 12.1-28.4c13.7-5 41.5 25 42.6 30.8s14.5 13.1 25.4 23.9c1.5 1.5 3.1 2.7 4.9 3.7z"/><path class="st3" d="M775.6 372c-.1 1-.2 1.9-.3 2.7-.3 2.5-1.1 4.9-2.2 7.1-2.2 3.6-8.9 17.8-8.9 17.8l-.5 2.6c-3.3-1.2-6.5-2.6-9.5-4.3l-37.9-26.3s-14.7-9.6-26.1-30 12.1-28.4 12.1-28.4c13.7-5 41.5 25 42.6 30.8 1.1 5.8 14.5 13.1 25.4 23.9 1.7 1.7 3.4 3 5.3 4.1z"/><path class="st14" d="M791.3 372.5l-1.9 31.2-11.9 1c-.3.1-.5.3-.8.3-7.6 2.8-22.4-5.7-22.4-5.7l-37.9-26.2s-14.7-9.6-26.1-30 12.1-28.4 12.1-28.4c13.7-5 41.5 25 42.6 30.8 1.1 5.8 14.5 13.1 25.4 23.9 1.6 1.6 3.4 3 5.5 4 4.9 2.6 10.9 2.3 15.4-.9z"/><path class="st3" d="M791.3 372.5l-1.9 31.2-11.9 1c-.3.1-.5.3-.8.3l-.8-15.2s11.3-4.2 11.8-4.5-11.8-4.6-11.8-4.6v-7.2c4.9 2.6 10.9 2.2 15.4-1z"/><path class="st3" d="M797.1 394.7c-4.8.2-8.5.2-8.5.2l5.4-21.5 3.1-.1c2 3.3 1.1 13.4 0 21.4z"/><path class="st16" d="M776.9 380.8s12.3 4.4 11.8 4.6-11.8 4.5-11.8 4.5l.8 16.6 16.6-.9s6.1-30.3.8-33.3l-18.3-.8.1 9.3z"/><path class="st3" d="M704.2 400.7s-4.1 3.9-7.5 4.9l7.5-4.9zM694.3 412.2s10.1-.4 11.3-2.4-11.3 2.4-11.3 2.4zM689.4 426.6c.6 0 12.7-1.7 13.2-3.3l-13.2 3.3zM685.6 435.9c4.4-.1 11.8-4.9 11.8-4.9l-11.8 4.9zM713.9 438.3s26.3 0 27.5-4.8-27.5 4.8-27.5 4.8zM733.7 370.4c.5 0 20.8 0 22.7-2.8s-22.7 2.8-22.7 2.8zM711.3 291c.2 1 .3 2 .3 3 0 1.1-.1 2.2-.3 3.3-.4 2.1-1 4.1-1.9 6.1l-.2.5c-.3.7-.6 1.4-1 2.1-1.5 3-3.2 5.9-5.2 8.6-4.6 6.1-9.8 11.6-15.7 16.4-1 .9-2.1 1.7-3.1 2.5V332s1.7-5.5 6.2-16.4c3.4-8.3 11-11.4 14.6-12.4l-1.8-1.5c1.8-7.5 5.1-11.2 7.7-13 .1.7.3 1.4.4 2.3zM772.6 243.9c-.3.1-.6.2-.9.4-1.9 1-2.5 3.5-4 5.1-1.8 1.9-4.6 2.1-7.1 2.5s-5.4 1-6.8 3.1c-1 1.6-.9 3.7-1.3 5.6 0 .3-.2.7-.4.9-.3.3-.8.4-1.2.4-5 .4-8.6-1.4-13.3-2.6-2.2-.6-4.8-.5-6.4 1-1.5 1.4-1.9 3.6-1.9 5.7v.2c.2 2 .3 4 .2 6-.5 3.1-2.4 5.9-5.2 7.3-1.2.6-2.5 1-3.8 1.1-.5.1-1 0-1.5-.2.9-1.5 1.7-3 2.5-4.5-9-14-5-32.6 8.9-41.6 14-9 32.6-5 41.6 8.9.3.1.4.4.6.7z"/><path class="st15" d="M780.9 240c-.4.8-.9 1.5-1.7 2-2.3 1.5-5.5-.1-7.9 1.2-1.9 1-2.5 3.5-4 5.1-1.8 1.9-4.6 2.1-7.1 2.5s-5.4 1-6.8 3.1c-1 1.6-.9 3.7-1.3 5.6 0 .3-.2.7-.4.9-.3.3-.8.4-1.2.4-5 .4-8.6-1.4-13.3-2.6-2.2-.6-4.8-.5-6.4 1s-1.9 3.6-1.9 5.7c.2 2 .3 4.1.2 6.2-.7 4.5-4.4 8-9 8.4-.7.1-1.3-.1-1.8-.5-.3-.3-.5-.7-.6-1.1-3.3-9.4-3.3-19.8-7.3-28.8-.7-1.3-1.2-2.6-1.7-4-.1-.3-.2-.6-.2-.9-.1-.6-.2-1.2-.2-1.8-.4.1-.8.2-1.1.5l-.3.3c-.6 1-.9 2.1-.8 3.2-.7 12.5.5 25 3.6 37.2 1 3 1.5 6.2 1.7 9.3-.1 3.4-.9 6.8-2.4 9.9-6.3 14.5-18.9 25-31.4 34.6 2.6-2.8 3.9-6.5 3.7-10.3-.4 1.5-1.7 2.6-3.2 2.8-1.5.3-3 .2-4.5-.1 1.9-.6 2.7-2.9 3.2-4.9 1-4 1.9-8 2.7-12.1.9-3.9 1.5-7.8 1.8-11.8.2-3.4-.1-6.8-.2-10.2-.3-9.3 0-18.6 1-27.9.7-8 2.1-16.6 8-22.1 2.5-2.1 5.4-3.9 8.4-5.2 0-1 7.3-3 8.3-3.1.4-.1.8-.1 1.2-.1 1.1-.2 2.1.4 2.6 1.4.4-.6.8-1.3 1.2-1.9.6-.8 1.2-1.6 1.9-2.4 3.8-4.2 8.8-7.2 13.2-10.7 1.6-1.5 3.4-2.7 5.2-3.9 2.4-1.2 5.1-1.9 7.8-2 4.5-.3 9 .5 13.2 2.1 6.1 2.3 11.4 6.5 17.7 8.2 1.6.3 3.1.8 4.6 1.3 5.7 2.3 8.5 8.7 6.2 14.4-.4.5-.5.8-.7 1.1z"/><g class="st17"><path d="M679.6 329.6c.7-1.9 1-3.9.9-5.9-.4 1.5-1.7 2.6-3.2 2.8-.4.1-.8.1-1.2.2-.5 1.6-1.3 3.1-2.8 3.6 1.5.3 3 .3 4.5.1.7-.1 1.3-.4 1.8-.8zM781.6 232.1c-.1 1.6-.5 3.1-1.2 4.5-.4.8-1 1.5-1.7 2-2.3 1.5-5.5-.1-7.9 1.2-1.9 1-2.5 3.5-4 5.1-1.8 1.9-4.6 2.1-7.1 2.5s-5.4 1-6.8 3.1c-1 1.6-.9 3.7-1.3 5.6 0 .8-.7 1.4-1.5 1.3h-.2c-5 .4-8.6-1.4-13.3-2.6-2.2-.6-4.8-.5-6.4 1-1.5 1.4-1.9 3.6-1.9 5.7.2 2 .3 4.1.2 6.1-.7 4.6-4.4 8-9 8.4-.7.1-1.3-.1-1.8-.5-.3-.3-.5-.7-.6-1.1-3.3-9.4-3.3-19.8-7.3-28.8-.6-1.3-1.2-2.6-1.7-4-.3-.8-.4-1.7-.5-2.6-.6.1-1.1.4-1.5.8-.6 1-.9 2.1-.8 3.2-.5 8-.1 16.1 1 24-.7-6.7-.9-13.4-.5-20.1 0-1.1.3-2.2.8-3.2.4-.5.9-.8 1.5-.8.1.9.2 1.8.5 2.6.5 1.4 1 2.7 1.7 4 4 9.1 4 19.5 7.3 28.8.1.4.3.8.6 1.1.5.4 1.2.6 1.8.5 4.6-.4 8.3-3.9 9-8.4.1-2.1 0-4.1-.2-6.2 0-2.1.4-4.3 1.9-5.7 1.7-1.5 4.2-1.6 6.4-1 4.7 1.2 8.3 2.9 13.3 2.6.4 0 .9-.1 1.2-.4.2-.3.4-.6.4-.9.4-1.9.3-3.9 1.3-5.5 1.4-2.2 4.2-2.8 6.8-3.1s5.4-.6 7.2-2.4c1.5-1.6 2-4.1 4-5.1 2.4-1.3 5.7.3 7.9-1.2.7-.5 1.3-1.2 1.7-2 1.3-2.7 1.6-5.7.7-8.5zM710.6 289.6c-.1 3.4-.9 6.8-2.4 9.9-5.6 12.9-16.3 22.8-27.4 31.5-.5 2.6-1.7 5-3.5 7 12.5-9.6 25.1-20.1 31.4-34.6 1.5-3.1 2.3-6.5 2.4-9.9 0-1.5-.2-2.9-.5-4.4v.5z"/></g><path class="st3" d="M711.9 232c-.9 4.1-2.1 9.5-3.1 12.3-.1-.6-.2-1.2-.2-1.8-.4.1-.8.2-1.1.5 0-2.9.3-7.2.7-10.5 1.1-.2 2.1.4 2.6 1.4.2-.7.7-1.3 1.1-1.9z"/><path class="st16" d="M711.4 232c-.9 4.1-2.1 9.5-3.1 12.3-.1-.6-.2-1.2-.2-1.8-.4.1-.8.2-1.1.5 0-2.9.3-7.2.7-10.5 1.1-.2 2.1.4 2.6 1.4.3-.7.7-1.3 1.1-1.9z"/></g><g id="icons"><g class="st24"><path class="st25" d="M306.6 106.6c-4.3 0-9.7-1.9-12.3-3.5l-2.5 10.2c3.5 1.9 8.9 3.2 14.9 3.2 13.2 0 20-6.3 20-14.9-.1-6.8-3.8-11.2-12.5-14.2-5.6-2-7.4-3.1-7.4-5.3 0-2.4 2-3.8 5.4-3.8 4 0 7.9 1.5 10 2.6l2.5-9.9c-2.8-1.4-7.6-2.6-13-2.6-11.4 0-18.7 6.5-18.7 15.1-.1 5.5 3.6 10.7 13.1 13.9 5.3 1.8 6.8 2.9 6.8 5.3-.2 2.4-2 3.9-6.3 3.9zM259.6 93c1.3.2 3 .3 4.9.3 8.5 0 15.7-2.1 20.6-6.7 3.8-3.6 5.9-8.9 5.9-15.1 0-6.2-2.7-11.5-6.8-14.7-4.2-3.4-10.5-5.1-19.4-5.1-8.8 0-15 .6-19.4 1.3v62.7h14.2V93zm0-29.9c1-.3 3-.6 5.9-.6 7.2 0 11.2 3.5 11.2 9.3 0 6.5-4.7 10.4-12.4 10.4-2.1 0-3.5-.1-4.8-.4V63.1h.1z"/><path class="st25" d="M222.6 20.8v126.8h126.8V20.8H222.6zm118.9 118.9H230.4V28.6h111.1v111.1z"/></g><g class="st24"><path class="st25" d="M453.3 83h17.8l4.8 16H491l-19.3-62.3h-18.5l-19 62.3h14.6l4.5-16zm8.6-35.8h.2c.9 3.7 7.1 25.2 7.1 25.2h-13.8c-.1 0 5.5-21.5 6.5-25.2zM496.6 53.8h14.1V99h-14.1zM503.5 48.2c4.6 0 7.6-3.2 7.6-7-.1-4.1-2.9-7.1-7.5-7.1-4.5 0-7.5 3-7.4 7.1-.1 3.9 2.9 7 7.3 7z"/><path class="st25" d="M409.2 3.1V130H536V3.1H409.2zm119 119H417.1V11h111.1v111.1z"/></g><g class="st24"><path class="st25" d="M640.9 48.9h13.8v60.7h-13.8zM679.6 110.6c5.7 0 11-2.5 13.8-7.5h.2l.6 6.5h12.2c-.2-2.9-.4-8.2-.4-13.2V45.7h-13.7v23.8h-.2c-2-3.1-6.2-5-11.6-5-10.5 0-19.8 8.6-19.7 23.4 0 13.7 8.3 22.7 18.8 22.7zm4.5-35.6c4.2 0 7.2 3.1 8 6.7.1.7.2 1.7.2 2.5v5.7c0 1.2-.1 2.2-.4 3.2-.8 3.9-4 6.6-7.9 6.6-5.7 0-9.4-4.7-9.4-12.1 0-7 3.2-12.6 9.5-12.6z"/><path class="st25" d="M610.2 14.7v126.8H737V14.7H610.2zm119 119H618.1V22.5h111.1v111.2z"/></g><g class="st24"><path class="st25" d="M136 71.8l-18.4-3.4 20.7 24.1zM146.9 110.3l-26.4 70.3 52.8-70.3zM145.2 78.9l2.6 23h25.5zM69.1 75.6l2.6 20.3 22.8-27.5zM106.4 68.4l-28.8 33.5h57.6zM61.5 81.6l-22.1 20.3H64zM74.8 110.3l31.6 83.6 31.6-83.6zM65.8 110.3H39.4l52.8 70.3z"/></g><g class="st24"><path class="st25" d="M913.7 50.9l-33.3-33.3c-1.5-1.5-4-1.5-5.5 0l-17.7 17.7c-1.5 1.5-1.5 4 0 5.5l33.3 33.3c.8.8 1.8 1.1 2.8 1.1 1 0 2-.4 2.8-1.1l17.7-17.7c1.4-1.5 1.4-4-.1-5.5zM884.9 79.7l-33.3-33.3s-.1-.1-.1-.2L814 65c-.9.4-1.5 1.2-1.9 2.1L781 144.8l47.7-47.7c-.7-1.5-1.2-3.2-1.2-5 0-6.5 5.3-11.8 11.8-11.8S851 85.6 851 92.1c0 6.5-5.3 11.8-11.8 11.8-1.8 0-3.5-.4-5-1.2l-47.7 47.7 77.7-31.1c.9-.4 1.6-1 2.1-1.9l18.8-37.5c-.1-.1-.1-.2-.2-.2z"/><path class="st25" d="M839.3 88.1c-2.2 0-3.9 1.8-3.9 3.9s1.8 3.9 3.9 3.9c2.2 0 3.9-1.8 3.9-3.9 0-2.1-1.8-3.9-3.9-3.9z"/></g><g class="st24"><path class="st25" d="M1037.6 123.7c1-1 1-2.7 0-3.7s-2.7-1-3.7 0-1 2.7 0 3.7c1.1 1 2.7 1 3.7 0zM947.2 196.3h128.7c1.1 0 2-.6 2.4-1.6.4-1 .2-2.1-.6-2.8L949.1 63.2c-.7-.7-1.9-1-2.8-.6-1 .4-1.6 1.4-1.6 2.4v128.7c-.1 1.4 1.1 2.6 2.5 2.6zm2.7-125l21 21-5.5 5.5c-1 1-1 2.7 0 3.7s2.7 1 3.7 0l5.5-5.5 11.1 11.1-5.5 5.5c-1 1-1 2.7 0 3.7s2.7 1 3.7 0l5.5-5.5 11.1 11.1-5.5 5.5c-1 1-1 2.7 0 3.7s2.7 1 3.7 0l5.5-5.5 11.1 11.1-5.5 5.5c-1 1-1 2.7 0 3.7s2.7 1 3.7 0l5.5-5.5 11.1 11.1-5.5 5.5c-1 1-1 2.7 0 3.7s2.7 1 3.7 0l5.5-5.5 11.1 11.1-5.5 5.5c-1 1-1 2.7 0 3.7s2.7 1 3.7 0l5.5-5.5 21 21H949.9V71.3z"/><path class="st25" d="M971.6 116.8c-.7-.7-1.9-1-2.8-.6-1 .4-1.6 1.4-1.6 2.4v52.6c0 1.4 1.2 2.6 2.6 2.6h52.6c1.1 0 2-.6 2.4-1.6.4-1 .2-2.1-.6-2.8l-52.6-52.6zm.8 51.8V125l43.6 43.6h-43.6zM1026.5 116.3c1 1 2.7 1 3.7 0s1-2.7 0-3.7l-11.1-11.1c-1-1-2.7-1-3.7 0s-1 2.7 0 3.7l11.1 11.1z"/><path class="st25" d="M984.3 89l73.4 73.4c3.1 3.1 8 3.1 11.1 0l7.4-7.4c3.1-3.1 3.1-8 0-11.1l-73.4-73.4c-.3-.3-.6-.5-1-.6l-22.2-7.4c-.9-.3-2-.1-2.7.6-.7.7-.9 1.7-.6 2.7l7.4 22.2c.1.4.3.8.6 1zm88.2 58.7c1 1 1 2.7 0 3.7l-7.4 7.4c-1 1-2.7 1-3.7 0l-5.7-5.7 11.1-11.1 5.7 5.7zm-9.3-9.4l-11.1 11.1-3.7-3.7 11.1-11.1 3.7 3.7zm-60.5-60.5l53.1 53.1-11.1 11.1-53.1-53.1 11.1-11.1zm-4-3.4L988.2 85l-5.3-15.8 15.8 5.2z"/></g></g><path class="st26" d="M0 0h1164.1v556H0z" id="overlay"/></svg>